<svg width="38" height="34" viewBox="0 0 38 34" fill="none" xmlns="http://www.w3.org/2000/svg">
<path d="M1.84198 4.91753L9.29918 13.4775C9.71082 13.9473 9.96061 14.5213 10.016 15.1247C10.0714 15.7281 9.92993 16.3331 9.6099 16.8608L3.14134 27.4829C1.48183 30.2073 4.83616 33.1841 7.69264 31.5186L36.1691 16.5231C38.4077 15.2118 37.0483 12.0415 33.5033 11.2318L5.57411 0.239228C2.46341 -0.941004 -0.276542 2.50462 1.84198 4.91753Z" fill="#FF875F"/>
<path d="M1.42231 7.53591L8.9566 15.9127C9.3725 16.3731 9.62487 16.9357 9.68086 17.5271C9.73685 18.1185 9.59387 18.7114 9.27053 19.2287L2.3748 28.0103C0.270046 31.6122 4.44744 35.2271 7.33344 33.598L33.9139 18.9491C36.1757 17.6638 37.9379 15.9287 37.0104 13.808L3.51992 1.09992C0.651755 0.248427 -1.56715 5.04891 1.42231 7.53591Z" fill="#FF875F"/>
<path d="M1.85298 5.93022L9.47923 14.4799C9.89709 14.9498 10.1504 15.5233 10.2061 16.126C10.2619 16.7287 10.1177 17.3328 9.79205 17.8598L3.19054 28.4847C1.5042 31.2057 4.92002 34.1823 7.82526 32.5202L34.616 17.5746C35.1308 17.2803 35.5465 16.8622 35.8176 16.3664C36.0887 15.8706 36.2046 15.3163 36.1526 14.7644C36.1005 14.2124 35.8826 13.6842 35.5227 13.2379C35.1628 12.7915 34.6749 12.4443 34.1126 12.2343L5.6715 1.23902C2.50378 0.05884 -0.304378 3.50758 1.85298 5.93022Z" fill="#FFE57B"/>
<path d="M23.9183 18.9039H21.2946V21.9999H19.381V18.9039H11.707V17.6439L18.7694 9.3999H20.9L14.1335 17.3559H19.4402V14.6199H21.2946V17.3559H23.9183V18.9039Z" fill="#FF4001"/>
</svg>
