<svg width="38" height="34" viewBox="0 0 38 34" fill="none" xmlns="http://www.w3.org/2000/svg">
<path d="M1.84198 4.91753L9.29918 13.4775C9.71082 13.9473 9.96061 14.5213 10.016 15.1247C10.0714 15.7281 9.92993 16.3331 9.6099 16.8608L3.14134 27.4829C1.48183 30.2073 4.83616 33.1841 7.69264 31.5186L36.1691 16.5231C38.4077 15.2118 37.0483 12.0415 33.5033 11.2318L5.57411 0.239228C2.46341 -0.941004 -0.276542 2.50462 1.84198 4.91753Z" fill="#FF875F"/>
<path d="M1.42231 7.53591L8.9566 15.9127C9.3725 16.3731 9.62487 16.9357 9.68086 17.5271C9.73685 18.1185 9.59387 18.7114 9.27053 19.2287L2.3748 28.0103C0.270046 31.6122 4.44744 35.2271 7.33344 33.598L33.9139 18.9491C36.1757 17.6638 37.9379 15.9287 37.0104 13.808L3.51992 1.09992C0.651755 0.248427 -1.56715 5.04891 1.42231 7.53591Z" fill="#FF875F"/>
<path d="M1.85298 5.93022L9.47923 14.4799C9.89709 14.9498 10.1504 15.5233 10.2061 16.126C10.2619 16.7287 10.1177 17.3328 9.79205 17.8598L3.19054 28.4847C1.5042 31.2057 4.92002 34.1823 7.82526 32.5202L34.616 17.5746C35.1308 17.2803 35.5465 16.8622 35.8176 16.3664C36.0887 15.8706 36.2046 15.3163 36.1526 14.7644C36.1005 14.2124 35.8826 13.6842 35.5227 13.2379C35.1628 12.7915 34.6749 12.4443 34.1126 12.2343L5.6715 1.23902C2.50378 0.05884 -0.304378 3.50758 1.85298 5.93022Z" fill="#FFE57B"/>
<path d="M18.2876 15.6919C19.6422 15.8119 20.6746 16.1959 21.3848 16.8439C22.095 17.4799 22.4501 18.2959 22.4501 19.2919C22.4501 20.0119 22.2528 20.6659 21.8582 21.2539C21.4637 21.8299 20.8719 22.2919 20.0828 22.6399C19.3068 22.9759 18.3533 23.1439 17.2223 23.1439C16.2359 23.1439 15.289 23.0119 14.3815 22.7479C13.4741 22.4719 12.731 22.0939 12.1523 21.6139L13.0598 20.1919C13.5333 20.5999 14.1382 20.9299 14.8747 21.1819C15.6112 21.4219 16.3937 21.5419 17.2223 21.5419C18.2481 21.5419 19.0438 21.3439 19.6093 20.9479C20.188 20.5519 20.4773 20.0059 20.4773 19.3099C20.4773 18.6139 20.1946 18.0739 19.629 17.6899C19.0635 17.3059 18.2087 17.1139 17.0645 17.1139H15.9597V15.8539L19.4318 11.9659H12.7836V10.3999H21.8977V11.6239L18.2876 15.6919Z" fill="#FF4001"/>
</svg>
