<svg width="81" height="71" viewBox="0 0 81 71" fill="none" xmlns="http://www.w3.org/2000/svg">
<path d="M66.6557 70.8724H58.2185C55.8932 70.8724 53.9999 68.9791 53.9999 66.6538V51.4669H46.4064C45.3838 51.4669 44.4591 50.8493 44.0676 49.9043C43.6761 48.9594 43.8921 47.8693 44.6177 47.147L60.6484 31.1164C61.6372 30.1275 63.2403 30.1275 64.2291 31.1164L80.2598 47.147C80.982 47.8693 81.2014 48.9594 80.8099 49.9043C80.4184 50.8493 79.4937 51.4669 78.4711 51.4669H70.8743V66.6538C70.8743 68.9791 68.981 70.8724 66.6557 70.8724Z" fill="#FFE57B"/>
<path d="M70.8724 0H10.1246C4.55608 0 0 4.55608 0 10.1246V50.6232C0 56.1917 4.55608 60.7478 10.1246 60.7478H47.2483V58.2166H46.4046C43.1984 58.2166 40.3298 56.5967 38.6761 53.998H10.1246C8.26845 53.998 6.74975 52.4793 6.74975 50.6232V10.1246C6.74975 8.26845 8.26845 6.74975 10.1246 6.74975H70.8724C72.7286 6.74975 74.2473 8.26845 74.2473 10.1246V31.6226L80.9971 38.3724V10.1246C80.9971 4.55608 76.441 0 70.8724 0Z" fill="#FFE57B"/>
<path d="M24.4679 16.8745H4.21866C2.82146 16.8745 1.6875 18.0085 1.6875 19.4057V41.3424C1.6875 42.7396 2.82146 43.8735 4.21866 43.8735H24.4679C29.5876 43.8735 33.7488 39.7123 33.7488 34.5926V26.1554C33.7488 21.0357 29.5876 16.8745 24.4679 16.8745ZM20.2493 37.1238C16.5201 37.1238 13.4996 34.1033 13.4996 30.374C13.4996 26.6448 16.5201 23.6243 20.2493 23.6243C23.9786 23.6243 26.9991 26.6448 26.9991 30.374C26.9991 34.1033 23.9786 37.1238 20.2493 37.1238Z" fill="#FFE57B"/>
</svg>
