<svg width="81" height="71" viewBox="0 0 81 71" fill="none" xmlns="http://www.w3.org/2000/svg">
<path d="M62.4369 70.9999C61.7889 70.9999 61.1409 70.7531 60.6481 70.2561L44.617 54.1966C43.8948 53.4731 43.6754 52.381 44.0669 51.4343C44.4584 50.4877 45.3831 49.869 46.4057 49.869H53.9994V34.6547C53.9994 32.3252 55.8928 30.4285 58.2181 30.4285H66.6556C68.9809 30.4285 70.8743 32.3252 70.8743 34.6547V49.869H78.468C79.4906 49.869 80.4153 50.4877 80.8068 51.4343C81.1983 52.381 80.9823 53.4731 80.2567 54.1966L64.2256 70.2561C63.7328 70.7531 63.0848 70.9999 62.4369 70.9999Z" fill="#FFE57B"/>
<path d="M70.8744 0H10.1249C4.55621 0 0 4.56429 0 10.1429V50.7143C0 56.2929 4.55621 60.8572 10.1249 60.8572H41.7484L39.8584 58.9638C38.4747 57.6115 37.6309 55.921 37.2934 54.0953H10.1249C8.26868 54.0953 6.74994 52.5738 6.74994 50.7143V10.1429C6.74994 8.28334 8.26868 6.76191 10.1249 6.76191H70.8744C72.7306 6.76191 74.2493 8.28334 74.2493 10.1429L74.7503 26.5458V43.1072H77.6243H78.4681C79.3456 43.1072 80.1893 43.2424 80.9993 43.4791V10.1429C80.9993 4.56429 76.4431 0 70.8744 0Z" fill="#FFE57B"/>
<path d="M24.4685 16.9048H4.21873C2.82149 16.9048 1.6875 18.0408 1.6875 19.4405V41.4167C1.6875 42.8164 2.82149 43.9524 4.21873 43.9524H24.4685C29.5884 43.9524 33.7497 39.7837 33.7497 34.6548V26.2024C33.7497 21.0735 29.5884 16.9048 24.4685 16.9048ZM20.2498 37.1905C16.5205 37.1905 13.4999 34.1646 13.4999 30.4286C13.4999 26.6926 16.5205 23.6667 20.2498 23.6667C23.9792 23.6667 26.9998 26.6926 26.9998 30.4286C26.9998 34.1646 23.9792 37.1905 20.2498 37.1905Z" fill="#FFE57B"/>
</svg>
