<svg width="50" height="50" viewBox="0 0 50 50" fill="none" xmlns="http://www.w3.org/2000/svg">
<mask id="mask0" mask-type="alpha" maskUnits="userSpaceOnUse" x="0" y="0" width="50" height="50">
<path d="M43.9817 0C47.2275 0 49.8453 2.68211 50 5.83837V50H47.1444H40.4266H39.891H38.2705H5.86361C2.62708 50 0 47.4877 0 44.1593V5.85016C0 2.6939 2.6317 0.00707681 5.87516 0.00707681H43.9656L43.9817 0ZM29.8583 13.4058H29.789L29.3227 13.8776C34.1082 15.293 36.4237 17.5033 36.4237 17.5033C33.3395 15.9275 30.56 15.1396 27.7806 14.8212C25.7722 14.5027 23.7638 14.6702 22.067 14.8212H21.6053C20.5203 14.8212 18.2118 15.293 15.1184 16.555C14.0404 17.0339 13.4217 17.3476 13.4217 17.3476C13.4217 17.3476 15.7348 14.984 20.832 13.7219L20.5203 13.4035C20.5203 13.4035 16.6605 13.2525 12.4937 16.3993C12.4937 16.3993 8.32679 23.8158 8.32679 32.959C8.32679 32.959 10.6353 37.0636 16.9675 37.2193C16.9675 37.2193 17.8909 35.962 18.8259 34.8556C15.2708 33.7517 13.8857 31.5437 13.8857 31.5437C13.8857 31.5437 14.195 31.6994 14.659 32.0155H14.7975C14.8668 32.0155 14.8991 32.0509 14.9361 32.0862V32.1004C14.973 32.1381 15.0053 32.1712 15.0746 32.1712C15.8364 32.492 16.5982 32.8081 17.2215 33.1147C18.2972 33.5912 19.68 34.0654 21.3768 34.3791C23.5237 34.6976 25.9846 34.8509 28.7871 34.3791C30.1722 34.0607 31.5573 33.7493 32.9424 33.1171C33.8427 32.6453 34.9508 32.1735 36.1674 31.3786C36.1674 31.3786 34.7823 33.5865 31.0772 34.6905C31.839 35.7898 32.9124 37.0494 32.9124 37.0494C39.247 36.9079 41.7078 32.8034 41.8463 32.9779C41.8463 23.8488 37.6564 16.4182 37.6564 16.4182C33.882 13.5544 30.35 13.4459 29.7267 13.4459L29.8559 13.3988L29.8583 13.4058ZM30.2461 23.8158C31.869 23.8158 33.1779 25.2312 33.1779 26.965C33.1779 28.7106 31.862 30.126 30.2461 30.126C28.6301 30.126 27.3143 28.7106 27.3143 26.9791C27.3189 25.2335 28.6371 23.8229 30.2461 23.8229V23.8158ZM19.7585 23.8158C21.3745 23.8158 22.6811 25.2312 22.6811 26.965C22.6811 28.7106 21.3653 30.126 19.7493 30.126C18.1333 30.126 16.8175 28.7106 16.8175 26.9791C16.8175 25.2335 18.1333 23.8229 19.7493 23.8229L19.7585 23.8158Z" fill="black"/>
</mask>
<g mask="url(#mask0)">
<path d="M0 5.09553C0 1.9688 2.48053 -0.565918 5.54042 -0.565918H44.3234C47.3833 -0.565918 49.8638 1.9688 49.8638 5.09553V44.7256C49.8638 47.8524 47.3833 50.3871 44.3234 50.3871H5.54042C2.48053 50.3871 0 47.8524 0 44.7256V5.09553Z" fill="#FF4001"/>
</g>
</svg>
