<svg width="81" height="81" viewBox="0 0 81 81" fill="none" xmlns="http://www.w3.org/2000/svg">
<path d="M21.3574 57.2695H2.37305C1.06231 57.2695 0 58.3318 0 59.6426V78.627C0 79.9377 1.06231 81 2.37305 81H21.3574C22.6682 81 23.7305 79.9377 23.7305 78.627C23.7305 77.7927 23.7305 60.475 23.7305 59.6426C23.7305 58.3318 22.6682 57.2695 21.3574 57.2695ZM18.9844 62.0156V66.7617H4.74609V62.0156H18.9844ZM18.9844 76.2539H4.74609V71.5078H18.9844V76.2539Z" fill="#FFE57B"/>
<path d="M49.9941 47.7773H31.0098C29.699 47.7773 28.6367 48.8397 28.6367 50.1504V78.627C28.6367 79.9377 29.699 81 31.0098 81H49.9941C51.3049 81 52.3672 79.9377 52.3672 78.627C52.3672 77.6858 52.3672 51.6181 52.3672 50.1504C52.3672 48.8397 51.3049 47.7773 49.9941 47.7773ZM33.3828 62.0156H47.6211V66.7617H33.3828V62.0156ZM47.6211 52.5234V57.2695H33.3828V52.5234H47.6211ZM47.6211 76.2539H33.3828V71.5078H47.6211V76.2539Z" fill="#FFE57B"/>
<path d="M78.627 28.793H59.6426C58.3318 28.793 57.2695 29.8553 57.2695 31.166V78.627C57.2695 79.9377 58.3318 81 59.6426 81H78.627C79.9377 81 81 79.9377 81 78.627C81 77.6858 81 31.9984 81 31.166C81 29.8553 79.9377 28.793 78.627 28.793ZM62.0156 57.2695V52.5234H76.2539V57.2695H62.0156ZM76.2539 47.7773H62.0156V43.0312H76.2539V47.7773ZM62.0156 62.0156H76.2539V66.7617H62.0156V62.0156ZM76.2539 33.5391V38.2852H62.0156V33.5391H76.2539ZM76.2539 76.2539H62.0156V71.5078H76.2539V76.2539Z" fill="#FFE57B"/>
<path d="M12.0254 42.873C12.6329 42.873 13.2403 42.6413 13.7032 42.1778L31.0098 24.8719L38.8241 32.6856C39.753 33.6145 41.259 33.612 42.1847 32.6813L66.6055 8.1246V11.8652C66.6055 13.176 67.6678 14.2383 68.9785 14.2383C70.2893 14.2383 71.3516 13.176 71.3516 11.8652V2.37305C71.3516 2.37181 71.3516 2.37057 71.3516 2.36996C71.3497 1.12164 70.3628 0.0407867 69.0459 0.0030899C69.023 0.0030899 69.0014 0 68.9785 0H59.4863C58.1756 0 57.1133 1.06231 57.1133 2.37305C57.1133 3.68378 58.1756 4.74609 59.4863 4.74609H63.2721L40.4976 27.6472L32.6876 19.8378C31.7612 18.9108 30.2589 18.9108 29.3319 19.8378L10.3476 38.8222C9.4206 39.7485 9.4206 41.2508 10.3476 42.1778C10.8104 42.6413 11.4179 42.873 12.0254 42.873Z" fill="#FFE57B"/>
</svg>
