<svg width="50" height="50" viewBox="0 0 50 50" fill="none" xmlns="http://www.w3.org/2000/svg">
<path d="M46 0H4C1.79086 0 0 1.79086 0 4V46C0 48.2091 1.79086 50 4 50H46C48.2091 50 50 48.2091 50 46V4C50 1.79086 48.2091 0 46 0Z" fill="#FF4001"/>
<path d="M39.3702 11.0372L5.93455 24.0667C4.85156 24.4888 4.91717 26.0429 6.03198 26.372L12.4861 28.2779C13.7628 28.6549 14.7682 29.6423 15.1684 30.9119L17.6992 38.9424C18.0304 39.9933 19.3622 40.3119 20.1332 39.5248L22.0983 37.5182C23.4913 36.0959 25.7181 35.9145 27.323 37.0925L33.1451 41.3661C34.1999 42.1403 35.7021 41.5651 35.9699 40.2844L41.6784 12.992C41.958 11.6551 40.6427 10.5413 39.3702 11.0372ZM35.1782 17.0941L19.6476 30.8278C19.4928 30.9648 19.3942 31.1542 19.3712 31.3596L18.7733 36.675C18.7537 36.8484 18.5112 36.8713 18.4594 36.7048L15.9993 28.7776C15.8866 28.4147 16.0335 28.0215 16.3564 27.8212L34.6965 16.4466C35.1182 16.1848 35.55 16.7654 35.1782 17.0941Z" fill="#FFE57B"/>
</svg>
