<svg width="50" height="50" viewBox="0 0 50 50" fill="none" xmlns="http://www.w3.org/2000/svg">
<path d="M50 46.875C50 48.6 48.6 50 46.875 50H3.125C1.4 50 0 48.6 0 46.875V3.125C0 1.4 1.4 0 3.125 0H46.875C48.6 0 50 1.4 50 3.125V46.875Z" fill="#FF4001"/>
<path d="M40.6047 15.4594C39.4547 15.9625 38.2219 16.2984 36.9219 16.4516C38.25 15.6734 39.2656 14.4375 39.7438 12.9656C38.5063 13.6859 37.1344 14.2109 35.6734 14.4938C34.5047 13.2672 32.8391 12.5 30.9969 12.5C27.4562 12.5 24.5906 15.3234 24.5906 18.8094C24.5906 19.3 24.6469 19.7859 24.7531 20.25C19.4297 19.9813 14.7078 17.4703 11.5469 13.6547C10.9969 14.5875 10.6781 15.6703 10.6781 16.8297C10.6781 19.0156 11.8125 20.9469 13.5281 22.0797C12.4797 22.0453 11.4906 21.7625 10.6281 21.2891C10.6266 21.3156 10.6266 21.3422 10.6266 21.3703C10.6266 24.425 12.8359 26.9781 15.7672 27.5578C15.2312 27.6984 14.6656 27.7797 14.0781 27.7797C13.6656 27.7797 13.2656 27.7422 12.875 27.6672C13.6875 30.1734 16.0531 31.9969 18.8562 32.05C16.6719 33.7406 13.9062 34.75 10.9047 34.75C10.3891 34.75 9.87656 34.7219 9.375 34.6625C12.2094 36.4516 15.5797 37.4953 19.1984 37.4953C30.9812 37.4953 37.4266 27.8797 37.4266 19.5406C37.4266 19.2703 37.4188 18.9937 37.4078 18.7266C38.6578 17.8344 39.7469 16.7234 40.6047 15.4594Z" fill="#FFE57B"/>
</svg>
